<svg height="512pt" fill="#52dca6" viewBox="0 0 512 512.00043" width="512pt" xmlns="http://www.w3.org/2000/svg">
<path d="m441.269531 79.457031c-2.882812-3.015625-7.660156-3.125-10.675781-.246093-3.015625 2.878906-3.125 7.660156-.246094 10.675781 81.488282 85.332031 90.121094 219.808593 14.523438 315.449219-82.75 104.6875-234.058594 121.96875-338.269532 39.597656-104.691406-82.75-121.96875-234.058594-39.597656-338.269532 83.753906-105.960937 237.6875-122.320312 341.882813-36.6875 3.222656 2.648438 7.976562 2.179688 10.625-1.039062 2.648437-3.222656 2.183593-7.980469-1.039063-10.628906-110.691406-90.917969-274.242187-73.699219-363.316406 38.988281-36.082031 45.652344-55.15625 100.472656-55.15625 158.539063 0 78.859374 35.441406 152.097656 97.238281 200.945312 110.601563 87.421875 271.429688 69.316406 359.480469-42.078125 36.082031-45.652344 55.15625-100.472656 55.15625-158.539063 0-66.269531-25.074219-129.023437-70.605469-176.707031zm0 0"/><path d="m66.246094 241.601562c-4.136719-.144531-7.664063 3.109376-7.8125 7.277344-5.300782 149.117188 150.640625 250.480469 285.050781 184.3125 132.792969-65.367187 148.375-248.527344 29.886719-336.074218-87.945313-64.980469-211.53125-46.25-276.371094 41.503906-17.519531 23.710937-29.28125 50.320312-34.960938 79.09375-.808593 4.089844 1.855469 8.0625 5.945313 8.871094 4.089844.808593 8.0625-1.851563 8.867187-5.945313 5.246094-26.566406 16.113282-51.144531 32.296876-73.046875 59.535156-80.578125 173.527343-98.714844 255.25-38.328125 45.910156 33.917969 74.066406 88.316406 74.066406 146.949219 0 100.785156-81.984375 182.285156-182.769532 182.285156-103.515624 0-185.800781-86.144531-182.171874-189.082031.148437-4.171875-3.109376-7.667969-7.277344-7.816407zm0 0"/><path d="m220.054688 101.664062c-13.640626 0-24.734376 11.097657-24.734376 24.734376v11.003906c-.039062 0-.078124 0-.117187 0-15.894531 0-28.828125 12.933594-28.828125 28.832031 0 15.058594 11.605469 27.460937 26.34375 28.722656v122.304688c-14.734375 1.269531-26.339844 13.667969-26.339844 28.722656 0 15.707031 12.699219 28.832031 28.9375 28.832031v10.785156c0 13.636719 11.097656 24.734376 24.738282 24.734376 13.640624 0 24.734374-11.09375 24.734374-24.734376v-10.792968l19.273438-.003906v10.796874c0 13.640626 11.097656 24.734376 24.734375 24.734376 13.640625 0 24.738281-11.09375 24.738281-24.734376v-20.203124c6.695313-3.828126 12.441406-8.785157 17.125-14.789063 2.566406-3.289063 1.980469-8.035156-1.304687-10.597656-3.289063-2.566407-8.035157-1.980469-10.601563 1.304687-4.210937 5.398438-9.605468 9.671875-16.042968 12.703125-2.804688 1.324219-4.515626 4.222657-4.316407 7.316407l.015625.265624c.011719.125.023438.253907.023438.371094v23.628906c0 5.3125-4.320313 9.636719-9.636719 9.636719-5.3125 0-9.632813-4.324219-9.632813-9.636719v-18.347656c0-4.167968-3.382812-7.550781-7.550781-7.550781l-34.375.007813c-4.171875 0-7.550781 3.378906-7.550781 7.546874v18.34375c0 5.3125-4.320312 9.632813-9.632812 9.632813s-9.636719-4.320313-9.636719-9.632813c0-19.5.652343-20.8125-2.210938-23.675781-2.804687-2.804687-5.398437-2.210937-12.996093-2.210937-7.570313 0-13.730469-6.160156-13.730469-13.730469s6.160156-13.726563 13.730469-13.726563h5.058593c4.167969 0 7.550781-3.382812 7.550781-7.550781v-137.195312c0-4.167969-3.382812-7.546875-7.550781-7.546875h-5.066406c-7.570313 0-13.730469-6.160156-13.730469-13.730469s6.160156-13.730469 13.730469-13.730469c2.628906 0 5.183594-.003906 7.679687-.007812 4.164063-.007813 7.535157-3.386719 7.535157-7.550782v-18.546874c0-5.3125 4.320312-9.632813 9.636719-9.632813 5.3125 0 9.632812 4.320313 9.632812 9.632813v18.371093c0 4.28125 3.5625 7.628907 7.589844 7.550781 11.753906-.058593 24.28125-.09375 34.019531.316407 4.289063.183593 7.867187-3.25 7.867187-7.542969v-18.695312c0-5.3125 4.320313-9.632813 9.632813-9.632813s9.636719 4.320313 9.636719 9.632813c0 25.160156.035156 23.78125-.054688 24.65625-.328125 3.136718 1.324219 6.144531 4.148438 7.546874 16.761718 8.328126 22.792968 23.640626 22.792968 42.636719 0 17.191407-4.980468 31.394531-14.023437 40-3.472656 3.304688-3.023437 8.972657.921875 11.6875 15.203125 10.476563 18.179688 25.386719 18.179688 47.601563 0 5.894531-.472657 11.46875-1.40625 16.5625-.753907 4.101562 1.960937 8.035156 6.0625 8.789062 4.109374.753906 8.039062-1.964844 8.789062-6.066406 1.097656-5.988281 1.65625-12.476562 1.65625-19.285156 0-18.585938-1.523438-39.328125-18.09375-54.742188 8.542969-11.3125 13.015625-26.527344 13.015625-44.546875 0-22.851562-7.398437-42.035156-26.886719-53.800781v-21.039062c0-13.636719-11.09375-24.734376-24.734375-24.734376s-24.734375 11.097657-24.734375 24.734376v10.914062c-6.242187-.125-13.058594-.136719-19.277344-.121094v-10.792968c0-13.636719-11.09375-24.734376-24.734374-24.734376zm0 0"/><path d="m240.070312 237.121094c8.183594 0 15.445313.25 21.90625.25 20.367188 0 38.644532-2.503906 38.644532-32.75 0-29.847656-24.460938-29.847656-40.648438-29.847656-5.980468 0-12.640625.167968-19.902344.167968-4.167968 0-7.550781 3.378906-7.550781 7.550782v47.078124c0 4.167969 3.382813 7.550782 7.550781 7.550782zm7.550782-47.125c4.363281-.050782 8.496094-.121094 12.351562-.121094 8.308594 0 16.589844.324219 20.921875 2.683594 1.5.820312 4.628907 2.523437 4.628907 12.0625 0 15.175781-3.300782 17.652344-23.546876 17.652344-4.296874 0-9.105468-.121094-14.355468-.195313zm0 0"/><path d="m232.519531 329.707031c0 4.171875 3.382813 7.550781 7.550781 7.550781h30.027344c23.621094 0 35.601563-12.832031 35.601563-38.140624 0-17.675782-3.140625-27.902344-10.5-34.195313-11.007813-9.414063-27.867188-7.046875-55.128907-7.046875-4.167968 0-7.550781 3.378906-7.550781 7.550781zm15.101563-56.785156c18.402344-.222656 32.429687-1.085937 37.765625 3.476563 3.554687 3.042968 5.210937 10.261718 5.210937 22.71875 0 19.269531-7.515625 23.039062-20.5 23.039062h-22.476562zm0 0"/></svg>