<?xml version="1.0" encoding="utf-8"?>
<!-- Generator: Adobe Illustrator 16.0.0, SVG Export Plug-In . SVG Version: 6.00 Build 0)  -->
<!DOCTYPE svg PUBLIC "-//W3C//DTD SVG 1.1//EN" "http://www.w3.org/Graphics/SVG/1.1/DTD/svg11.dtd">
<svg version="1.1" id="Слой_1" xmlns="http://www.w3.org/2000/svg" xmlns:xlink="http://www.w3.org/1999/xlink" x="0px" y="0px"
	 width="512px" height="512px" viewBox="0 0 512 512" enable-background="new 0 0 512 512" xml:space="preserve">
<g>
	<path d="M355.701,269.175l-85.549-154.5c-2.73-4.94-7.939-8.01-13.58-8.01c-5.61,0-10.79,3.04-13.54,7.93l-86.7,154.5
		c-3.01,5.36-2.57,12,1.13,16.91l84.93,113.13c2.91,3.88,7.56,6.2,12.42,6.2h3.52c4.9,0,9.561-2.34,12.471-6.271l23.74-31.199
		c1.109-1.49,1.568-3.36,1.279-5.24c-0.301-1.88-1.311-3.53-2.85-4.64c-1.211-0.87-2.631-1.33-4.111-1.33
		c-2.26,0-4.34,1.04-5.689,2.85l-22.629,29.69c-0.932,1.239-2.422,1.979-3.98,1.979c-1.59-0.01-3.041-0.74-4-1.99l-61.26-81.62
		c-1.33-1.76-1.33-4.22-0.01-5.989c0.94-1.261,2.44-2.011,4.01-2.011c0.59,0,1.18,0.11,1.74,0.311l57.17,21.22
		c0.779,0.3,1.609,0.45,2.45,0.45c0.85,0,1.68-0.15,2.459-0.45l54.66-20.31c0.561-0.2,1.15-0.311,1.74-0.311
		c1.59,0,3.1,0.761,4.041,2.04c1.299,1.78,1.279,4.25-0.07,6.01l-18.631,24.061c-1.119,1.53-1.559,3.43-1.219,5.36
		c0.34,1.93,1.42,3.579,3.059,4.659c1.15,0.761,2.5,1.16,3.881,1.16c1.109,0,2.211-0.26,3.18-0.74c1-0.51,1.84-1.22,2.49-2.109
		l42.41-55.04C358.232,281.045,358.642,274.486,355.701,269.175z M249.552,297.125c0,1.64-0.8,3.18-2.14,4.1
		c-0.83,0.59-1.82,0.9-2.86,0.9c-0.61,0-1.19-0.11-1.74-0.311l-50.47-18.729c-1.95-0.74-3.26-2.62-3.26-4.69
		c0-2.08,1.31-3.97,3.26-4.689l50.47-18.74c0.56-0.2,1.15-0.31,1.74-0.31c1.03,0,2.02,0.31,2.86,0.9c1.34,0.94,2.14,2.47,2.14,4.101
		V297.125z M249.552,233.935c0,2.08-1.31,3.96-3.25,4.69l-58.83,21.83c-0.55,0.2-1.14,0.31-1.74,0.31c-1.47,0-2.86-0.64-3.8-1.75
		c-1.36-1.58-1.58-3.87-0.56-5.69l58.83-104.83c0.88-1.57,2.56-2.55,4.36-2.55c0.42,0,0.85,0.06,1.26,0.16
		c2.2,0.58,3.73,2.57,3.73,4.84V233.935z M320.922,283.085l-50.51,18.76c-0.551,0.2-1.141,0.311-1.74,0.311
		c-1.029,0-2.01-0.311-2.85-0.891c-1.35-0.93-2.15-2.47-2.15-4.109v-37.53c0-1.65,0.801-3.18,2.15-4.1c0.84-0.59,1.83-0.9,2.85-0.9
		c0.6,0,1.189,0.11,1.74,0.32l50.51,18.76c1.939,0.729,3.25,2.609,3.25,4.689C324.172,280.465,322.861,282.345,320.922,283.085z
		 M329.941,258.515c-0.949,1.11-2.33,1.74-3.789,1.74c-0.6,0-1.189-0.1-1.74-0.31l-57.48-21.351c-1.949-0.74-3.26-2.62-3.26-4.69
		v-82.45c0-2.28,1.541-4.27,3.75-4.85c0.41-0.1,0.83-0.15,1.24-0.15c1.83,0,3.51,0.99,4.391,2.58l57.469,103.81
		C331.531,254.655,331.293,256.935,329.941,258.515z"/>
	<path d="M444.27,79.457c-2.883-3.017-7.66-3.125-10.676-0.246c-3.017,2.879-3.125,7.66-0.246,10.676
		c81.488,85.332,90.121,219.809,14.522,315.449c-82.75,104.688-234.06,121.969-338.271,39.598
		C4.91,362.184-12.367,210.875,70.004,106.664C153.758,0.703,307.692-15.656,411.887,69.977c3.223,2.648,7.977,2.18,10.625-1.039
		c2.647-3.223,2.184-7.979-1.039-10.629C310.782-32.609,147.23-15.39,58.156,97.297C22.074,142.949,3,197.77,3,255.836
		c0,78.858,35.441,152.098,97.238,200.944c110.602,87.422,271.432,69.316,359.481-42.077
		c36.082-45.652,55.155-100.474,55.155-158.539C514.877,189.895,489.802,127.141,444.27,79.457z"/>
	<path d="M69.246,241.602c-4.137-0.145-7.664,3.109-7.813,7.277c-5.302,149.117,150.641,250.479,285.052,184.313
		c132.793-65.366,148.375-248.526,29.887-336.073C288.426,32.137,164.84,50.867,100,138.621
		c-17.52,23.711-29.28,50.319-34.961,79.094c-0.809,4.09,1.855,8.063,5.945,8.871c4.09,0.808,8.063-1.853,8.867-5.945
		c5.246-26.565,16.112-51.145,32.297-73.047c59.535-80.578,173.526-98.715,255.251-38.328
		c45.91,33.918,74.066,88.316,74.066,146.949C441.467,357,359.481,438.5,258.695,438.5c-103.516,0-185.801-86.146-182.172-189.082
		C76.672,245.246,73.414,241.75,69.246,241.602z"/>
</g>
</svg>
