<?xml version="1.0" encoding="utf-8"?>
<!-- Generator: Adobe Illustrator 16.0.0, SVG Export Plug-In . SVG Version: 6.00 Build 0)  -->
<!DOCTYPE svg PUBLIC "-//W3C//DTD SVG 1.1//EN" "http://www.w3.org/Graphics/SVG/1.1/DTD/svg11.dtd">
<svg version="1.1" id="Слой_1" xmlns="http://www.w3.org/2000/svg" xmlns:xlink="http://www.w3.org/1999/xlink" x="0px" y="0px"
	 width="512px" height="512px" viewBox="0 0 512 512" enable-background="new 0 0 512 512" xml:space="preserve">
<path d="M441.27,79.457c-2.883-3.016-7.66-3.125-10.676-0.246s-3.125,7.66-0.246,10.676
	c81.488,85.332,90.121,219.809,14.523,315.449c-82.75,104.688-234.06,121.969-338.271,39.598
	C1.91,362.184-15.367,210.875,67.004,106.664C150.758,0.703,304.692-15.656,408.887,69.977c3.223,2.648,7.977,2.18,10.625-1.039
	c2.648-3.223,2.184-7.98-1.039-10.629C307.782-32.609,144.23-15.39,55.156,97.297C19.074,142.949,0,197.77,0,255.836
	c0,78.859,35.441,152.098,97.238,200.945c110.602,87.422,271.431,69.316,359.481-42.078
	c36.082-45.652,55.156-100.473,55.156-158.539C511.876,189.895,486.802,127.141,441.27,79.457z"/>
<path d="M66.246,241.602c-4.137-0.145-7.664,3.109-7.813,7.277c-5.301,149.117,150.641,250.48,285.052,184.313
	c132.793-65.367,148.375-248.527,29.887-336.074C285.426,32.137,161.84,50.867,97,138.621c-17.52,23.711-29.281,50.32-34.961,79.094
	c-0.809,4.09,1.855,8.063,5.945,8.871s8.063-1.852,8.867-5.945c5.246-26.566,16.113-51.145,32.297-73.047
	c59.535-80.578,173.527-98.715,255.251-38.328c45.91,33.918,74.066,88.316,74.066,146.949C438.466,357,356.481,438.5,255.695,438.5
	c-103.516,0-185.801-86.145-182.172-189.082C73.672,245.246,70.414,241.75,66.246,241.602z"/>
<path d="M413.662,355.651h-41.815c-3.898,0-7.063-3.159-7.063-7.063V178.435l-101.906,70.064c-2.408,1.652-5.592,1.652-8,0
	l-101.912-70.064v170.153c0,3.903-3.159,7.063-7.058,7.063H99.435c-3.899,0-7.063-3.159-7.063-7.063
	c0-3.902,3.164-7.062,7.063-7.062h39.411V165.013c0-2.622,1.45-5.03,3.777-6.25c2.311-1.224,5.123-1.046,7.285,0.428l108.97,74.916
	l108.969-74.912c2.166-1.479,4.974-1.657,7.284-0.428c2.323,1.216,3.774,3.624,3.774,6.246v176.513h34.757
	c3.898,0,7.058,3.159,7.058,7.062C420.719,352.491,417.56,355.651,413.662,355.651z"/>
</svg>
