<?xml version="1.0" encoding="utf-8"?>
<!-- Generator: Adobe Illustrator 16.0.0, SVG Export Plug-In . SVG Version: 6.00 Build 0)  -->
<!DOCTYPE svg PUBLIC "-//W3C//DTD SVG 1.1//EN" "http://www.w3.org/Graphics/SVG/1.1/DTD/svg11.dtd">
<svg version="1.1" id="Слой_1" xmlns="http://www.w3.org/2000/svg" xmlns:xlink="http://www.w3.org/1999/xlink" x="0px" y="0px"
	 width="76px" height="93.396px" viewBox="0 0 76 93.396" enable-background="new 0 0 76 93.396" xml:space="preserve">
<path fill="#3BFFB2" d="M-2,0"/>
<g>
	<polygon fill="#3BFFB2" points="38.023,42.068 65,71.999 11,71.999 	"/>
	<polygon fill="#3BFFB2" points="76,-0.001 76,71.999 43.977,35.475 	"/>
	<polygon fill="#3BFFB2" points="0,71.999 0,-0.001 27.605,30.573 	"/>
	<path fill="#3BFFB2" d="M49.385-0.001h13.229c1.236,2.719-7.854,9-7.854,9h5.479l-15,16.858l9.798-14.358h-5.651
		c0,0,9.231-6.366,7.979-9.125h-7.959L49.385-0.001z"/>
	<path fill="#3BFFB2" d="M60.297,10.515"/>
	<path fill="#3BFFB2" d="M58.422,10.515"/>
	<path fill="#3BFFB2" d="M61.646,8.999"/>
	<path fill="#3BFFB2" d="M57.146,8.999"/>
	<path fill="#3BFFB2" d="M32.008-0.001h13.229c1.236,2.72-7.854,9-7.854,9h5.479L0,71.999l37.659-60.5h-5.651
		c0,0,9.232-6.366,7.979-9.125h-7.958L32.008-0.001z"/>
	<path fill="#3BFFB2" d="M14.546-0.001h13.229c1.236,2.719-7.854,9-7.854,9H25.4L10.399,25.857l9.798-14.358h-5.65
		c0,0,9.231-6.366,7.979-9.125h-7.959L14.546-0.001z"/>
	<path fill="#FFFFFF" d="M2,77.79h2.117v13.621h7.161v1.984H2V77.79z"/>
	<path fill="#FFFFFF" d="M23.743,77.79h1.917l6.678,15.605h-2.469l-1.563-3.859h-7.428l-1.542,3.859h-2.471L23.743,77.79z
		 M27.534,87.686l-2.908-7.164h-0.045l-2.953,7.164H27.534z"/>
	<path fill="#FFFFFF" d="M38.771,77.79h2.779l8.594,12.828h0.043V77.79h2.117v15.605h-2.688l-8.686-12.828h-0.045v12.828H38.77
		L38.771,77.79L38.771,77.79z"/>
	<path fill="#FFFFFF" d="M60.368,77.79h5.442c6.59,0,8.198,4.914,8.198,7.804c0,3.986-2.976,7.804-8.552,7.804h-5.092L60.368,77.79
		L60.368,77.79z M62.484,91.411h2.666c3.572,0,6.613-1.961,6.613-5.815c0-1.984-1.037-5.82-6.104-5.82h-3.175V91.411z"/>
	<path fill="#3BFFB2" d="M60.297,10.515"/>
	<path fill="#3BFFB2" d="M58.422,10.515"/>
	<path fill="#3BFFB2" d="M61.646,8.999"/>
	<path fill="#3BFFB2" d="M57.146,8.999"/>
	<path fill="#3BFFB2" d="M65,71.999"/>
	<path fill="#3BFFB2" d="M11,71.999"/>
</g>
<path fill="#3BFFB2" d="M74,0"/>
</svg>
